<svg width="1920" height="1080" viewBox="0 0 1920 1080" fill="none" xmlns="http://www.w3.org/2000/svg">
<g clip-path="url(#clip0_31_22)">
<path d="M0 0V1080H1920V0H0Z" fill="#FFFEF3"/>
<path d="M1920 970.13C1920 979.9 1920 989.67 1920 999.44C1809.85 977.86 1724.31 901.17 1616.95 873.58C1552.12 856.92 1490.23 874.07 1427.66 893.55C1355.14 916.13 1284.9 945.3 1213.27 970.42C1149.52 992.78 1083.64 1013.21 1015.91 1018.26C961.87 1022.29 902.51 996.47 852.36 978.15C799.89 958.98 748.29 937.45 695.32 919.67C639.99 901.1 573.37 877.47 514.48 884.13C442.95 892.22 373.5 913.55 304.21 932.13C204.09 958.98 103.54 979.79 0 987.59C0 974.91 0 962.23 0 949.55C123.53 941.2 242.22 914.63 359.91 876.98C435.24 852.88 510.92 823.55 589.98 814.38C700.76 801.53 809.25 880.23 903.03 927.76C948.11 950.61 1002.93 979.48 1054.63 976.91C1123.09 973.5 1188.89 945.71 1250.23 917.18C1322.23 883.69 1391.71 844.67 1465.29 814.63C1524.74 790.37 1587.88 767.31 1650.67 791.24C1699.23 809.74 1736.41 846.4 1773.89 880.98C1817.32 921.05 1862.14 954.58 1920 970.13Z" fill="#8DC1D3" fill-opacity="0.5"/>
<path d="M1920 862.87C1920 884.2 1920 905.53 1920 926.87C1857.73 911.4 1814.41 872.76 1773.58 825.1C1739.37 785.17 1705.64 741.32 1655.05 721.6C1593.62 697.66 1530.16 719.26 1473.42 746.04C1401.16 780.14 1334.86 825.42 1264.91 863.79C1208.45 894.77 1144.12 927.64 1077.89 925.53C1028.67 923.97 980.82 897.29 940.42 871.25C851.97 814.23 768.63 739.69 655.7 749.53C570.98 756.91 490.09 792.33 410.42 819.55C276.69 865.25 141.46 894.47 0 901.12C0 880.61 0 860.1 0 839.59C142.81 835.72 278.07 803.26 412.48 756.63C497.16 727.25 584.37 688.91 674.99 683.84C732.21 680.64 782.66 694.65 831.32 724.47C873.66 750.42 911.1 783.39 952.06 811.32C991.39 838.14 1035.72 861.05 1084.26 862.96C1146.64 865.42 1206.31 834.66 1258.58 803.96C1322.33 766.51 1381.8 721.91 1447.18 687.21C1500.01 659.17 1560.79 634.99 1620.51 654.73C1675.77 673 1715.74 719.8 1755.22 760.04C1802.49 808.21 1852.18 849.55 1920 862.87Z" fill="#8DC1D3" fill-opacity="0.5"/>
<path d="M1920 724.44C1920 747.69 1920 770.94 1920 794.18C1846.43 782.73 1789.11 737.76 1734.43 690.08C1689.74 651.11 1643.1 602.86 1584.66 585.45C1527.06 568.29 1471.75 597.21 1423.77 627.24C1367.65 662.37 1317.05 705.47 1261.52 741.46C1214.22 772.11 1160.99 799.99 1103.2 799.84C1050.33 799.7 1002.47 775.62 959.12 747.39C864.49 685.76 777.63 595.46 656.12 602.62C562.6 608.13 472.64 652.35 386.87 686.24C261.79 735.65 135.55 776.42 0 780.36C0 760.91 0 741.46 0 722.01C124.72 716.55 239.25 665.33 350.82 613.42C434.88 574.31 524.54 523.45 618.56 514.89C749.63 502.96 861.16 618.53 964.43 681.98C1012.95 711.79 1067.37 739.27 1125.82 737.1C1178.18 735.16 1224.94 710.64 1266.34 680.16C1313.09 645.74 1354.17 604.34 1400.33 569.17C1442.6 536.97 1492.12 502.04 1547.62 515.7C1610.96 531.29 1664.93 581.99 1715.27 620.63C1776.44 667.59 1841.22 715.57 1920 724.44Z" fill="#8DC1D3" fill-opacity="0.5"/>
<path d="M1920 594.23C1920 614.97 1920 635.72 1920 656.46C1836.39 650.77 1764.25 599.76 1697.35 553.54C1642.08 515.35 1580.85 461.97 1512.96 448.85C1459.57 438.53 1414.27 479.63 1377.52 513.36C1340.07 547.73 1307.51 587.3 1268.31 619.79C1231.9 649.97 1190.01 670.71 1142.32 674.04C1079.38 678.44 1020.29 649.27 967.52 618.11C902.81 579.89 842.99 534.05 778.74 495.09C722.26 460.83 656.49 425.63 588.24 432.98C492.82 443.26 402 499.59 318.61 543C219.57 594.55 114.04 656.28 0 662.19C0 641.2 0 620.22 0 599.23C109.22 594.51 212.47 531.28 307.09 482.14C392.52 437.77 484.1 381.94 581.05 368.32C649.82 358.66 714.77 391.99 772.15 426.18C838.79 465.88 900.72 512.93 967.31 552.7C1020.59 584.51 1080.19 615.54 1144.05 612.15C1188.53 609.79 1226.12 590.66 1257.45 559.57C1290.53 526.74 1316.21 487.29 1349.53 454.63C1385.77 419.1 1432.57 383.1 1485.92 393.11C1558.06 406.64 1624.43 458.44 1685.38 496.25C1756.62 540.44 1833.81 590.62 1920 594.23Z" fill="#8DC1D3" fill-opacity="0.5"/>
<path d="M1920 497.99C1920 513.18 1920 528.38 1920 543.57C1750 537.35 1626.07 389.68 1465.43 353.04C1411.22 340.68 1357.41 359.96 1317.32 397.61C1284.47 428.46 1265.21 469.2 1238.23 504.6C1164.02 601.97 1044.07 538.53 960.49 487.25C893.19 445.96 829.56 398.72 760.58 360.16C701.78 327.3 637.1 298.65 568.69 313.53C474.44 334.03 386.7 385.42 301.24 428.14C207.82 474.85 106.68 531.57 0 535.71C0 514.53 0 493.36 0 472.18C103.17 469.2 201.53 419.32 292.84 375.6C377.28 335.17 461.31 288.01 551.53 261.48C619.64 241.44 684.16 265.32 744.87 296.95C816.46 334.26 882.12 381.8 950.42 424.58C1004.25 458.29 1066.25 498.85 1131.27 504.63C1172.32 508.28 1198.86 487.52 1218.16 453.07C1239.08 415.72 1252.65 373.73 1285.81 344.67C1329.74 306.16 1392.26 303.28 1446.36 317.55C1525.87 338.51 1599.5 380.64 1672.96 416.42C1750.32 454.09 1832.4 495.11 1920 497.99Z" fill="#8DC1D3" fill-opacity="0.5"/>
<path d="M1920 388.76C1920 408.96 1920 429.16 1920 449.36C1831.79 446.74 1747.71 410.16 1667.81 375.7C1589.06 341.73 1511.18 302.86 1428.63 278.72C1374.71 262.95 1303.02 250.02 1255.45 288.77C1221.59 316.35 1213.31 360.54 1198.57 399.25C1185.08 434.68 1164.01 457.27 1123.57 450.62C1058.01 439.84 995.72 395.37 941.09 360.29C872.17 316.04 804.84 268.09 731.05 232.08C668.49 201.55 604.63 182.44 537.24 207.78C451.13 240.16 369.56 284.02 285.96 322.18C196.25 363.14 100.2 406.43 0 408.65C0 387.17 0 365.69 0 344.21C98.98 339.9 193.83 301.99 283.71 263.01C367.33 226.75 448.54 185.21 532.16 148.98C597.92 120.5 660.76 134.36 724.6 162.35C798.4 194.71 865.95 239.93 934.22 282.26C989.84 316.75 1050.47 358.85 1115.25 373.77C1153.54 382.59 1171.71 361.63 1182.48 327.44C1194 290.82 1200.04 247.9 1233.75 223.99C1284.19 188.22 1361.13 212.72 1414.31 228.9C1498.98 254.67 1580.39 290.3 1663.01 321.8C1745.4 353.23 1831.03 385.2 1920 388.76Z" fill="#8DC1D3" fill-opacity="0.5"/>
<path d="M1920 189.07C1920 225.45 1920 261.84 1920 298.22C1752.47 290.21 1596.43 211.22 1435.65 170.82C1379.49 156.71 1312.14 139.92 1256.65 165.06C1221.13 181.15 1201.83 212.86 1177.57 241.4C1153.77 269.4 1125.73 281.45 1088.86 274.98C1026.47 264.02 966.78 233.41 910.27 206.18C793.57 149.94 651.36 60.7098 517.86 106.56C349.1 164.5 181.02 253.01 0 262.6C0 231.25 0 199.9 0 168.55C168.58 167.62 330.44 111.61 494.22 78.6398C624.44 52.4298 754.07 110.48 874.43 153.33C930.56 173.31 991.24 198.33 1051.33 201.68C1095.71 204.15 1136.39 192.41 1175.37 171.86C1215.41 150.76 1253.08 125.97 1296.94 113.08C1357 95.4298 1418.77 100.73 1479.63 110.83C1626.42 135.22 1770.14 186.52 1920 189.07Z" fill="#8DC1D3" fill-opacity="0.5"/>
<path d="M1920 6.86646e-05C1920 27.5201 1920 55.0501 1920 82.5701C1784.32 84.6301 1650.16 61.5301 1515.09 52.6701C1452.59 48.5701 1391.15 49.9301 1329.28 60.5701C1274.94 69.9201 1222 85.2801 1168.48 98.2601C1117.12 110.71 1065.13 119.94 1012.18 120.99C954.25 122.14 894.56 106.17 838.15 94.3901C717.06 69.0901 596.46 40.7401 471.91 48.6601C314.63 58.6601 157.95 81.8301 0 76.2801C0 50.8601 0 25.4301 0 0.0100784C153.87 0.0100784 307.74 0.0100784 461.61 0.0100784C947.74 7.84304e-05 1433.87 6.86646e-05 1920 6.86646e-05Z" fill="#8DC1D3" fill-opacity="0.5"/>
<path d="M1920 1030.75C1920 1047.17 1920 1063.58 1920 1080C1433.87 1080 947.74 1080 461.61 1080C307.74 1080 153.87 1080 0 1080C0 1062.37 0 1044.74 0 1027.11C155.68 1018.02 307.46 979.93 462.72 969.03C521.95 964.87 585.88 980.72 643.9 991.86C700.52 1002.73 756.73 1015.5 813.19 1027.1C868.16 1038.4 927.71 1055.07 984.05 1051.84C1048.13 1048.17 1111.51 1036.92 1174.31 1024.13C1302.87 997.93 1436.31 954.95 1568.51 969.87C1686.93 983.23 1801.07 1020.25 1920 1030.75Z" fill="#8DC1D3" fill-opacity="0.5"/>
</g>
<defs>
<clipPath id="clip0_31_22">
<rect width="1080" height="1920" fill="white" transform="matrix(0 -1 1 0 0 1080)"/>
</clipPath>
</defs>
</svg>
