<svg width="8960" height="3546" viewBox="0 0 8960 3546" fill="none" xmlns="http://www.w3.org/2000/svg">
<path d="M8959 0H0V3546H8959V0Z" fill="#C1F4D5"/>
<path d="M0.000480593 99V39C214.437 39 322.85 76.3 427.679 112.3C527.43 146.6 621.657 179 814.441 179C1007.22 179 1101.45 146.6 1201.2 112.3C1306.03 76.3 1414.44 39 1628.88 39C1843.32 39 1951.73 76.3 2056.56 112.3C2156.31 146.6 2250.54 179 2443.32 179C2636.11 179 2730.33 146.6 2830.08 112.3C2934.91 76.3 3043.33 39 3257.76 39C3472.2 39 3580.61 76.3 3685.44 112.3C3785.19 146.6 3879.42 179 4072.2 179C4264.99 179 4359.21 146.6 4458.97 112.3C4563.79 76.3 4672.21 39 4886.64 39C5101.08 39 5209.49 76.3 5314.32 112.3C5414.07 146.6 5508.3 179 5701.08 179C5893.87 179 5988.09 146.6 6087.85 112.3C6192.68 76.3 6301.09 39 6515.52 39C6729.96 39 6838.37 76.3 6943.2 112.3C7042.95 146.6 7137.18 179 7329.97 179C7522.75 179 7616.98 146.6 7716.73 112.3C7821.56 76.3 7929.97 39 8144.41 39C8358.84 39 8467.26 76.3 8572.08 112.3C8671.84 146.6 8766.06 179 8958.85 179V239C8744.41 239 8636 201.7 8531.17 165.7C8431.42 131.4 8337.19 99 8144.41 99C7951.62 99 7857.4 131.4 7757.64 165.7C7652.81 201.7 7544.4 239 7329.97 239C7115.53 239 7007.12 201.7 6902.29 165.7C6802.53 131.4 6708.31 99 6515.52 99C6322.74 99 6228.51 131.4 6128.76 165.7C6023.93 201.7 5915.52 239 5701.08 239C5486.65 239 5378.23 201.7 5273.41 165.7C5173.65 131.4 5079.43 99 4886.64 99C4693.86 99 4599.63 131.4 4499.88 165.7C4395.05 201.7 4286.64 239 4072.2 239C3857.77 239 3749.35 201.7 3644.52 165.7C3544.77 131.4 3450.55 99 3257.76 99C3064.98 99 2970.75 131.4 2871 165.7C2766.17 201.7 2657.76 239 2443.32 239C2228.89 239 2120.47 201.7 2015.64 165.7C1915.89 131.4 1821.67 99 1628.88 99C1436.1 99 1341.87 131.4 1242.12 165.7C1137.29 201.7 1028.88 239 814.441 239C600.004 239 491.592 201.7 386.763 165.7C287.011 131.4 192.784 99 0.000480593 99Z" fill="#84F7B2"/>
<path d="M0.000356674 300.8V240.8C214.437 240.8 322.85 278.1 427.679 314.1C527.43 348.4 621.657 380.8 814.441 380.8C1007.22 380.8 1101.45 348.4 1201.2 314.1C1306.03 278.1 1414.44 240.8 1628.88 240.8C1843.32 240.8 1951.73 278.1 2056.56 314.1C2156.31 348.4 2250.54 380.8 2443.32 380.8C2636.11 380.8 2730.33 348.4 2830.08 314.1C2934.91 278.1 3043.33 240.8 3257.76 240.8C3472.2 240.8 3580.61 278.1 3685.44 314.1C3785.19 348.4 3879.42 380.8 4072.2 380.8C4264.99 380.8 4359.21 348.4 4458.97 314.1C4563.79 278.1 4672.21 240.8 4886.64 240.8C5101.08 240.8 5210.09 278.1 5314.92 314.1C5414.67 348.4 5508.9 380.8 5701.68 380.8C5894.47 380.8 5988.69 348.4 6088.44 314.1C6193.27 278.1 6301.69 240.8 6516.12 240.8C6730.56 240.8 6838.97 278.1 6943.8 314.1C7043.55 348.4 7137.78 380.8 7330.56 380.8C7523.35 380.8 7617.57 348.4 7717.32 314.1C7822.15 278.1 7930.57 240.8 8145 240.8C8359.44 240.8 8468.15 278.1 8572.98 314.1C8672.73 348.4 8766.96 380.8 8959.74 380.8V440.8C8745.31 440.8 8636.89 403.5 8532.06 367.5C8432.31 333.2 8338.09 300.8 8145.3 300.8C7952.52 300.8 7858.29 333.2 7758.54 367.5C7653.71 403.5 7545.3 440.8 7330.86 440.8C7116.42 440.8 7008.01 403.5 6903.18 367.5C6803.43 333.2 6709.2 300.8 6516.42 300.8C6323.64 300.8 6229.41 333.2 6129.66 367.5C6024.83 403.5 5916.42 440.8 5701.98 440.8C5487.54 440.8 5379.13 403.5 5274.3 367.5C5174.55 333.2 5080.32 300.8 4887.54 300.8C4694.76 300.8 4600.53 333.2 4500.78 367.5C4395.95 403.5 4287.54 440.8 4073.1 440.8C3858.66 440.8 3750.25 403.5 3645.42 367.5C3545.67 333.2 3451.44 300.8 3258.66 300.8C3065.87 300.8 2971.65 333.2 2871.9 367.5C2767.07 403.5 2658.65 440.8 2444.22 440.8C2229.78 440.8 2121.37 403.5 2016.54 367.5C1916.79 333.2 1822.56 300.8 1629.78 300.8C1436.99 300.8 1342.77 333.2 1243.02 367.5C1138.19 403.5 1029.77 440.8 815.337 440.8C600.9 440.8 492.488 403.5 387.659 367.5C287.011 333.2 192.784 300.8 0.000356674 300.8Z" fill="#10A04A"/>
<path d="M0.000480593 502.6V442.6C214.437 442.6 322.85 479.9 427.679 515.9C527.43 550.2 621.657 582.6 814.441 582.6C1007.22 582.6 1101.45 550.2 1201.2 515.9C1306.03 479.9 1414.44 442.6 1628.88 442.6C1843.32 442.6 1951.73 479.9 2056.56 515.9C2156.31 550.2 2250.54 582.6 2443.32 582.6C2636.11 582.6 2730.33 550.2 2830.08 515.9C2934.91 479.9 3043.33 442.6 3257.76 442.6C3472.2 442.6 3580.61 479.9 3685.44 515.9C3785.19 550.2 3879.42 582.6 4072.2 582.6C4264.99 582.6 4359.21 550.2 4458.97 515.9C4563.79 479.9 4672.21 442.6 4886.64 442.6C5101.08 442.6 5209.49 479.9 5314.32 515.9C5414.07 550.2 5508.3 582.6 5701.08 582.6C5893.87 582.6 5988.09 550.2 6087.85 515.9C6192.68 479.9 6301.09 442.6 6515.52 442.6C6729.96 442.6 6838.37 479.9 6943.2 515.9C7042.95 550.2 7137.18 582.6 7329.97 582.6C7522.75 582.6 7616.98 550.2 7716.73 515.9C7821.56 479.9 7929.97 442.6 8144.41 442.6C8358.84 442.6 8467.26 479.9 8572.08 515.9C8671.84 550.2 8766.06 582.6 8958.85 582.6V642.6C8744.41 642.6 8636 605.3 8531.17 569.3C8431.42 535 8337.19 502.6 8144.41 502.6C7951.62 502.6 7857.4 535 7757.64 569.3C7652.81 605.3 7544.4 642.6 7329.97 642.6C7115.53 642.6 7007.12 605.3 6902.29 569.3C6802.53 535 6708.31 502.6 6515.52 502.6C6322.74 502.6 6228.51 535 6128.76 569.3C6023.93 605.3 5915.52 642.6 5701.08 642.6C5486.65 642.6 5378.23 605.3 5273.41 569.3C5173.65 535 5079.43 502.6 4886.64 502.6C4693.86 502.6 4599.63 535 4499.88 569.3C4395.05 605.3 4286.64 642.6 4072.2 642.6C3857.77 642.6 3749.35 605.3 3644.52 569.3C3544.77 535 3450.55 502.6 3257.76 502.6C3064.98 502.6 2970.75 535 2871 569.3C2766.17 605.3 2657.76 642.6 2443.32 642.6C2228.89 642.6 2120.47 605.3 2015.64 569.3C1915.89 535 1821.67 502.6 1628.88 502.6C1436.1 502.6 1341.87 535 1242.12 569.3C1137.29 605.3 1028.88 642.6 814.441 642.6C600.004 642.6 491.592 605.3 386.763 569.3C287.011 535 192.784 502.6 0.000480593 502.6Z" fill="#84F7B2"/>
<path d="M0.000480593 704.5V644.5C214.437 644.5 322.85 681.8 427.679 717.8C527.43 752.1 621.657 784.5 814.441 784.5C1007.22 784.5 1101.45 752.1 1201.2 717.8C1306.03 681.8 1414.44 644.5 1628.88 644.5C1843.32 644.5 1951.73 681.8 2056.56 717.8C2156.31 752.1 2250.54 784.5 2443.32 784.5C2636.11 784.5 2730.33 752.1 2830.08 717.8C2934.91 681.8 3043.33 644.5 3257.76 644.5C3472.2 644.5 3580.61 681.8 3685.44 717.8C3785.19 752.1 3879.42 784.5 4072.2 784.5C4264.99 784.5 4359.21 752.1 4458.97 717.8C4563.79 681.8 4672.21 644.5 4886.64 644.5C5101.08 644.5 5209.49 681.8 5314.32 717.8C5414.07 752.1 5508.3 784.5 5701.08 784.5C5893.87 784.5 5988.09 752.1 6087.85 717.8C6192.68 681.8 6301.09 644.5 6515.52 644.5C6729.96 644.5 6838.37 681.8 6943.2 717.8C7042.95 752.1 7137.18 784.5 7329.97 784.5C7522.75 784.5 7616.98 752.1 7716.73 717.8C7821.56 681.8 7929.97 644.5 8144.41 644.5C8358.84 644.5 8467.26 681.8 8572.08 717.8C8671.84 752.1 8766.06 784.5 8958.85 784.5V844.5C8744.41 844.5 8636 807.2 8531.17 771.2C8431.42 736.9 8337.19 704.5 8144.41 704.5C7951.62 704.5 7857.4 736.9 7757.64 771.2C7652.81 807.2 7544.4 844.5 7329.97 844.5C7115.53 844.5 7007.12 807.2 6902.29 771.2C6802.53 736.9 6708.31 704.5 6515.52 704.5C6322.74 704.5 6228.51 736.9 6128.76 771.2C6023.93 807.2 5915.52 844.5 5701.08 844.5C5486.65 844.5 5378.83 807.2 5274 771.1C5174.25 736.8 5080.02 704.4 4887.24 704.4C4694.46 704.4 4600.23 736.8 4500.48 771.1C4395.65 807.1 4287.24 844.4 4072.8 844.4C3858.36 844.4 3749.95 807.1 3645.12 771.1C3545.37 736.8 3451.14 704.4 3258.36 704.4C3065.58 704.4 2971.35 736.8 2871.6 771.1C2766.77 807.1 2658.36 844.4 2443.92 844.4C2229.48 844.4 2121.07 807.1 2016.24 771.1C1916.49 736.8 1822.26 704.4 1629.48 704.4C1436.7 704.4 1342.47 736.8 1242.72 771.1C1137.89 807.1 1029.47 844.4 815.038 844.4C600.602 844.4 492.189 807.1 387.36 771.1C287.011 736.8 192.784 704.5 0.000480593 704.5Z" fill="#10A04A"/>
<path d="M0.000480593 906.3V846.3C214.437 846.3 322.85 883.6 427.679 919.6C527.43 953.9 621.657 986.3 814.441 986.3C1007.22 986.3 1101.45 953.9 1201.2 919.6C1306.03 883.6 1414.44 846.3 1628.88 846.3C1843.32 846.3 1951.73 883.6 2056.56 919.6C2156.31 953.9 2250.54 986.3 2443.32 986.3C2636.11 986.3 2730.33 953.9 2830.08 919.6C2934.91 883.6 3043.33 846.3 3257.76 846.3C3472.2 846.3 3580.61 883.6 3685.44 919.6C3785.19 953.9 3879.42 986.3 4072.2 986.3C4264.99 986.3 4359.21 953.9 4458.97 919.6C4563.79 883.6 4672.21 846.3 4886.64 846.3C5101.08 846.3 5209.49 883.6 5314.32 919.6C5414.07 953.9 5508.3 986.3 5701.08 986.3C5893.87 986.3 5988.09 953.9 6087.85 919.6C6192.68 883.6 6301.09 846.3 6515.52 846.3C6729.96 846.3 6838.37 883.6 6943.2 919.6C7042.95 953.9 7137.18 986.3 7329.97 986.3C7522.75 986.3 7616.98 953.9 7716.73 919.6C7821.56 883.6 7929.97 846.3 8144.41 846.3C8358.84 846.3 8467.26 883.6 8572.08 919.6C8671.84 953.9 8766.06 986.3 8958.85 986.3V1046.3C8744.41 1046.3 8636 1009 8531.17 973C8431.42 938.7 8337.19 906.3 8144.41 906.3C7951.62 906.3 7857.4 938.7 7757.64 973C7652.81 1009 7544.4 1046.3 7329.97 1046.3C7115.53 1046.3 7007.12 1009 6902.29 973C6802.53 938.7 6708.31 906.3 6515.52 906.3C6322.74 906.3 6228.51 938.7 6128.76 973C6023.93 1009 5915.52 1046.3 5701.08 1046.3C5486.65 1046.3 5378.23 1009 5273.41 973C5173.65 938.7 5079.43 906.3 4886.64 906.3C4693.86 906.3 4599.63 938.7 4499.88 973C4395.05 1009 4286.64 1046.3 4072.2 1046.3C3857.77 1046.3 3749.35 1009 3644.52 973C3544.77 938.7 3450.55 906.3 3257.76 906.3C3064.98 906.3 2970.75 938.7 2871 973C2766.17 1009 2657.76 1046.3 2443.32 1046.3C2228.89 1046.3 2120.47 1009 2015.64 973C1915.89 938.7 1821.67 906.3 1628.88 906.3C1436.1 906.3 1341.87 938.7 1242.12 973C1137.29 1009 1028.88 1046.3 814.441 1046.3C600.004 1046.3 491.592 1009 386.763 973C287.011 938.7 192.784 906.3 0.000480593 906.3Z" fill="#84F7B2"/>
<path d="M0.000480593 1108.1V1048.1C214.437 1048.1 322.85 1085.4 427.679 1121.4C527.43 1155.7 621.657 1188.1 814.441 1188.1C1007.22 1188.1 1101.45 1155.7 1201.2 1121.4C1306.03 1085.4 1414.44 1048.1 1628.88 1048.1C1843.32 1048.1 1951.73 1085.4 2056.56 1121.4C2156.31 1155.7 2250.54 1188.1 2443.32 1188.1C2636.11 1188.1 2730.33 1155.7 2830.08 1121.4C2934.91 1085.4 3043.33 1048.1 3257.76 1048.1C3472.2 1048.1 3580.61 1085.4 3685.44 1121.4C3785.19 1155.7 3879.42 1188.1 4072.2 1188.1C4264.99 1188.1 4359.21 1155.7 4458.97 1121.4C4563.79 1085.4 4672.21 1048.1 4886.64 1048.1C5101.08 1048.1 5209.49 1085.4 5314.32 1121.4C5414.07 1155.7 5508.3 1188.1 5701.08 1188.1C5893.87 1188.1 5988.09 1155.7 6087.85 1121.4C6192.68 1085.4 6301.09 1048.1 6515.52 1048.1C6729.96 1048.1 6838.37 1085.4 6943.2 1121.4C7042.95 1155.7 7137.18 1188.1 7329.97 1188.1C7522.75 1188.1 7616.98 1155.7 7716.73 1121.4C7821.56 1085.4 7929.97 1048.1 8144.41 1048.1C8358.84 1048.1 8467.26 1085.4 8572.08 1121.4C8671.84 1155.7 8766.06 1188.1 8958.85 1188.1V1248.1C8744.41 1248.1 8636 1210.8 8531.17 1174.8C8431.42 1140.5 8337.19 1108.1 8144.41 1108.1C7951.62 1108.1 7857.4 1140.5 7757.64 1174.8C7652.81 1210.8 7544.4 1248.1 7329.97 1248.1C7115.53 1248.1 7007.12 1210.8 6902.29 1174.8C6802.53 1140.5 6708.31 1108.1 6515.52 1108.1C6322.74 1108.1 6228.51 1140.5 6128.76 1174.8C6023.93 1210.8 5915.52 1248.1 5701.08 1248.1C5486.65 1248.1 5378.23 1210.8 5273.41 1174.8C5173.65 1140.5 5079.43 1108.1 4886.64 1108.1C4693.86 1108.1 4599.63 1140.5 4499.88 1174.8C4395.05 1210.8 4286.64 1248.1 4072.2 1248.1C3857.77 1248.1 3749.35 1210.8 3644.52 1174.8C3544.77 1140.5 3450.55 1108.1 3257.76 1108.1C3064.98 1108.1 2970.75 1140.5 2871 1174.8C2766.17 1210.8 2657.76 1248.1 2443.32 1248.1C2228.89 1248.1 2120.47 1210.8 2015.64 1174.8C1915.89 1140.5 1821.67 1108.1 1628.88 1108.1C1436.1 1108.1 1341.87 1140.5 1242.12 1174.8C1137.29 1210.8 1028.88 1248.1 814.441 1248.1C600.004 1248.1 491.592 1210.8 386.763 1174.8C287.011 1140.5 192.784 1108.1 0.000480593 1108.1Z" fill="#10A04A"/>
<path d="M0.000480593 1309.9V1249.9C214.437 1249.9 322.85 1287.2 427.679 1323.2C527.43 1357.5 621.657 1389.9 814.441 1389.9C1007.22 1389.9 1101.45 1357.5 1201.2 1323.2C1306.03 1287.2 1414.44 1249.9 1628.88 1249.9C1843.32 1249.9 1951.73 1287.2 2056.56 1323.2C2156.31 1357.5 2250.54 1389.9 2443.32 1389.9C2636.11 1389.9 2730.33 1357.5 2830.08 1323.2C2934.91 1287.2 3043.33 1249.9 3257.76 1249.9C3472.2 1249.9 3580.61 1287.2 3685.44 1323.2C3785.19 1357.5 3879.42 1389.9 4072.2 1389.9C4264.99 1389.9 4359.21 1357.5 4458.97 1323.2C4563.79 1287.2 4672.21 1249.9 4886.64 1249.9C5101.08 1249.9 5209.49 1287.2 5314.32 1323.2C5414.07 1357.5 5508.3 1389.9 5701.08 1389.9C5893.87 1389.9 5988.09 1357.5 6087.85 1323.2C6192.68 1287.2 6301.09 1249.9 6515.52 1249.9C6729.96 1249.9 6838.37 1287.2 6943.2 1323.2C7042.95 1357.5 7137.18 1389.9 7329.97 1389.9C7522.75 1389.9 7616.98 1357.5 7716.73 1323.2C7821.56 1287.2 7929.97 1249.9 8144.41 1249.9C8358.84 1249.9 8467.26 1287.2 8572.08 1323.2C8671.84 1357.5 8766.06 1389.9 8958.85 1389.9V1449.9C8744.41 1449.9 8636 1412.6 8531.17 1376.6C8431.42 1342.3 8337.19 1309.9 8144.41 1309.9C7951.62 1309.9 7857.4 1342.3 7757.64 1376.6C7652.81 1412.6 7544.4 1449.9 7329.97 1449.9C7115.53 1449.9 7007.12 1412.6 6902.29 1376.6C6802.53 1342.3 6708.31 1309.9 6515.52 1309.9C6322.74 1309.9 6228.51 1342.3 6128.76 1376.6C6023.93 1412.6 5915.52 1449.9 5701.08 1449.9C5486.65 1449.9 5378.23 1412.6 5273.41 1376.6C5173.65 1342.3 5079.43 1309.9 4886.64 1309.9C4693.86 1309.9 4599.63 1342.3 4499.88 1376.6C4395.05 1412.6 4286.64 1449.9 4072.2 1449.9C3857.77 1449.9 3749.35 1412.6 3644.52 1376.6C3544.77 1342.3 3450.55 1309.9 3257.76 1309.9C3064.98 1309.9 2970.75 1342.3 2871 1376.6C2766.17 1412.6 2657.76 1449.9 2443.32 1449.9C2228.89 1449.9 2120.47 1412.6 2015.64 1376.6C1915.89 1342.3 1821.67 1309.9 1628.88 1309.9C1436.1 1309.9 1341.87 1342.3 1242.12 1376.6C1137.29 1412.6 1028.88 1449.9 814.441 1449.9C600.004 1449.9 491.592 1412.6 386.763 1376.6C287.011 1342.3 192.784 1309.9 0.000480593 1309.9Z" fill="#84F7B2"/>
<path d="M0.000480593 1511.8V1451.8C214.437 1451.8 322.85 1489.1 427.679 1525.1C527.43 1559.4 621.657 1591.8 814.441 1591.8C1007.22 1591.8 1101.45 1559.4 1201.2 1525.1C1306.03 1489.1 1414.44 1451.8 1628.88 1451.8C1843.32 1451.8 1951.73 1489.1 2056.56 1525.1C2156.31 1559.4 2250.54 1591.8 2443.32 1591.8C2636.11 1591.8 2730.33 1559.4 2830.08 1525.1C2934.91 1489.1 3043.33 1451.8 3257.76 1451.8C3472.2 1451.8 3580.61 1489.1 3685.44 1525.1C3785.19 1559.4 3879.42 1591.8 4072.2 1591.8C4264.99 1591.8 4359.21 1559.4 4458.97 1525.1C4563.79 1489.1 4672.21 1451.8 4886.64 1451.8C5101.08 1451.8 5209.49 1489.1 5314.32 1525.1C5414.07 1559.4 5508.3 1591.8 5701.08 1591.8C5893.87 1591.8 5988.09 1559.4 6087.85 1525.1C6192.68 1489.1 6301.09 1451.8 6515.52 1451.8C6729.96 1451.8 6838.37 1489.1 6943.2 1525.1C7042.95 1559.4 7137.18 1591.8 7329.97 1591.8C7522.75 1591.8 7616.98 1559.4 7716.73 1525.1C7821.56 1489.1 7929.97 1451.8 8144.41 1451.8C8358.84 1451.8 8467.26 1489.1 8572.08 1525.1C8671.84 1559.4 8766.06 1591.8 8958.85 1591.8V1651.8C8744.41 1651.8 8636 1614.5 8531.17 1578.5C8431.42 1544.2 8337.19 1511.8 8144.41 1511.8C7951.62 1511.8 7857.4 1544.2 7757.64 1578.5C7652.81 1614.5 7544.4 1651.8 7329.97 1651.8C7115.53 1651.8 7007.12 1614.5 6902.29 1578.5C6802.53 1544.2 6708.31 1511.8 6515.52 1511.8C6322.74 1511.8 6228.51 1544.2 6128.76 1578.5C6023.93 1614.5 5915.52 1651.8 5701.08 1651.8C5486.65 1651.8 5378.23 1614.5 5273.41 1578.5C5173.65 1544.2 5079.43 1511.8 4886.64 1511.8C4693.86 1511.8 4599.63 1544.2 4499.88 1578.5C4395.05 1614.5 4286.64 1651.8 4072.2 1651.8C3857.77 1651.8 3749.35 1614.5 3644.52 1578.5C3544.77 1544.2 3450.55 1511.8 3257.76 1511.8C3064.98 1511.8 2970.75 1544.2 2871 1578.5C2766.17 1614.5 2657.76 1651.8 2443.32 1651.8C2228.89 1651.8 2120.47 1614.5 2015.64 1578.5C1915.89 1544.2 1821.67 1511.8 1628.88 1511.8C1436.1 1511.8 1341.87 1544.2 1242.12 1578.5C1137.29 1614.5 1028.88 1651.8 814.441 1651.8C600.004 1651.8 491.592 1614.5 386.763 1578.5C287.011 1544.2 192.784 1511.8 0.000480593 1511.8Z" fill="#10A04A"/>
<path d="M0.000480593 1713.6V1653.6C214.437 1653.6 322.85 1690.9 427.679 1726.9C527.43 1761.2 621.657 1793.6 814.441 1793.6C1007.22 1793.6 1101.45 1761.2 1201.2 1726.9C1306.03 1690.9 1414.44 1653.6 1628.88 1653.6C1843.32 1653.6 1951.73 1690.9 2056.56 1726.9C2156.31 1761.2 2250.54 1793.6 2443.32 1793.6C2636.11 1793.6 2730.33 1761.2 2830.08 1726.9C2934.91 1690.9 3043.33 1653.6 3257.76 1653.6C3472.2 1653.6 3580.61 1690.9 3685.44 1726.9C3785.19 1761.2 3879.42 1793.6 4072.2 1793.6C4264.99 1793.6 4359.21 1761.2 4458.97 1726.9C4563.79 1690.9 4672.21 1653.6 4886.64 1653.6C5101.08 1653.6 5209.49 1690.9 5314.32 1726.9C5414.07 1761.2 5508.3 1793.6 5701.08 1793.6C5893.87 1793.6 5988.09 1761.2 6087.85 1726.9C6192.68 1690.9 6301.09 1653.6 6515.52 1653.6C6729.96 1653.6 6838.37 1690.9 6943.2 1726.9C7042.95 1761.2 7137.18 1793.6 7329.97 1793.6C7522.75 1793.6 7616.98 1761.2 7716.73 1726.9C7821.56 1690.9 7929.97 1653.6 8144.41 1653.6C8358.84 1653.6 8467.26 1690.9 8572.08 1726.9C8671.84 1761.2 8766.06 1793.6 8958.85 1793.6V1853.6C8744.41 1853.6 8636 1816.3 8531.17 1780.3C8431.42 1746 8337.19 1713.6 8144.41 1713.6C7951.62 1713.6 7857.4 1746 7757.64 1780.3C7652.81 1816.3 7544.4 1853.6 7329.97 1853.6C7115.53 1853.6 7007.12 1816.3 6902.29 1780.3C6802.53 1746 6708.31 1713.6 6515.52 1713.6C6322.74 1713.6 6228.51 1746 6128.76 1780.3C6023.93 1816.3 5915.52 1853.6 5701.08 1853.6C5486.65 1853.6 5378.23 1816.3 5273.41 1780.3C5173.65 1746 5079.43 1713.6 4886.64 1713.6C4693.86 1713.6 4599.63 1746 4499.88 1780.3C4395.05 1816.3 4286.64 1853.6 4072.2 1853.6C3857.77 1853.6 3749.35 1816.3 3644.52 1780.3C3544.77 1746 3450.55 1713.6 3257.76 1713.6C3064.98 1713.6 2970.75 1746 2871 1780.3C2766.17 1816.3 2657.76 1853.6 2443.32 1853.6C2228.89 1853.6 2120.47 1816.3 2015.64 1780.3C1915.89 1746 1821.67 1713.6 1628.88 1713.6C1436.1 1713.6 1341.87 1746 1242.12 1780.3C1137.29 1816.3 1028.88 1853.6 814.441 1853.6C600.004 1853.6 491.592 1816.3 386.763 1780.3C287.011 1746 192.784 1713.6 0.000480593 1713.6Z" fill="#84F7B2"/>
<path d="M0.000480593 1915.4V1855.4C214.437 1855.4 322.85 1892.7 427.679 1928.7C527.43 1963 621.657 1995.4 814.441 1995.4C1007.22 1995.4 1101.45 1963 1201.2 1928.7C1306.03 1892.7 1414.44 1855.4 1628.88 1855.4C1843.32 1855.4 1951.73 1892.7 2056.56 1928.7C2156.31 1963 2250.54 1995.4 2443.32 1995.4C2636.11 1995.4 2730.33 1963 2830.08 1928.7C2934.91 1892.7 3043.33 1855.4 3257.76 1855.4C3472.2 1855.4 3580.61 1892.7 3685.44 1928.7C3785.19 1963 3879.42 1995.4 4072.2 1995.4C4264.99 1995.4 4359.21 1963 4458.97 1928.7C4563.79 1892.7 4672.21 1855.4 4886.64 1855.4C5101.08 1855.4 5209.49 1892.7 5314.32 1928.7C5414.07 1963 5508.3 1995.4 5701.08 1995.4C5893.87 1995.4 5988.09 1963 6087.85 1928.7C6192.68 1892.7 6301.09 1855.4 6515.52 1855.4C6729.96 1855.4 6838.37 1892.7 6943.2 1928.7C7042.95 1963 7137.18 1995.4 7329.97 1995.4C7522.75 1995.4 7616.98 1963 7716.73 1928.7C7821.56 1892.7 7929.97 1855.4 8144.41 1855.4C8358.84 1855.4 8467.26 1892.7 8572.08 1928.7C8671.84 1963 8766.06 1995.4 8958.85 1995.4V2055.4C8744.41 2055.4 8636 2018.1 8531.17 1982.1C8431.42 1947.8 8337.19 1915.4 8144.41 1915.4C7951.62 1915.4 7857.4 1947.8 7757.64 1982.1C7652.81 2018.1 7544.4 2055.4 7329.97 2055.4C7115.53 2055.4 7007.12 2018.1 6902.29 1982.1C6802.53 1947.8 6708.31 1915.4 6515.52 1915.4C6322.74 1915.4 6228.51 1947.8 6128.76 1982.1C6023.93 2018.1 5915.52 2055.4 5701.08 2055.4C5486.65 2055.4 5378.23 2018.1 5273.41 1982.1C5173.65 1947.8 5079.43 1915.4 4886.64 1915.4C4693.86 1915.4 4599.63 1947.8 4499.88 1982.1C4395.05 2018.1 4286.64 2055.4 4072.2 2055.4C3857.77 2055.4 3749.35 2018.1 3644.52 1982.1C3544.77 1947.8 3450.55 1915.4 3257.76 1915.4C3064.98 1915.4 2970.75 1947.8 2871 1982.1C2766.17 2018.1 2657.76 2055.4 2443.32 2055.4C2228.89 2055.4 2120.47 2018.1 2015.64 1982.1C1915.89 1947.8 1821.67 1915.4 1628.88 1915.4C1436.1 1915.4 1341.87 1947.8 1242.12 1982.1C1137.29 2018.1 1028.88 2055.4 814.441 2055.4C600.004 2055.4 491.592 2018.1 386.763 1982.1C287.011 1947.8 192.784 1915.4 0.000480593 1915.4Z" fill="#10A04A"/>
<path d="M0.000480593 2117.3V2057.3C214.437 2057.3 322.85 2094.6 427.679 2130.6C527.43 2164.9 621.657 2197.3 814.441 2197.3C1007.22 2197.3 1101.45 2164.9 1201.2 2130.6C1306.03 2094.6 1414.44 2057.3 1628.88 2057.3C1843.32 2057.3 1951.73 2094.6 2056.56 2130.6C2156.31 2164.9 2250.54 2197.3 2443.32 2197.3C2636.11 2197.3 2730.33 2164.9 2830.08 2130.6C2934.91 2094.6 3043.33 2057.3 3257.76 2057.3C3472.2 2057.3 3580.61 2094.6 3685.44 2130.6C3785.19 2164.9 3879.42 2197.3 4072.2 2197.3C4264.99 2197.3 4359.21 2164.9 4458.97 2130.6C4563.79 2094.6 4672.21 2057.3 4886.64 2057.3C5101.08 2057.3 5209.49 2094.6 5314.32 2130.6C5414.07 2164.9 5508.3 2197.3 5701.08 2197.3C5893.87 2197.3 5988.09 2164.9 6087.85 2130.6C6192.68 2094.6 6301.09 2057.3 6515.52 2057.3C6729.96 2057.3 6838.37 2094.6 6943.2 2130.6C7042.95 2164.9 7137.18 2197.3 7329.97 2197.3C7522.75 2197.3 7616.98 2164.9 7716.73 2130.6C7821.56 2094.6 7929.97 2057.3 8144.41 2057.3C8358.84 2057.3 8467.26 2094.6 8572.08 2130.6C8671.84 2164.9 8766.06 2197.3 8958.85 2197.3V2257.3C8744.41 2257.3 8636 2220 8531.17 2184C8431.42 2149.7 8337.19 2117.3 8144.41 2117.3C7951.62 2117.3 7857.4 2149.7 7757.64 2184C7652.81 2220 7544.4 2257.3 7329.97 2257.3C7115.53 2257.3 7007.12 2220 6902.29 2184C6802.53 2149.7 6708.31 2117.3 6515.52 2117.3C6322.74 2117.3 6228.51 2149.7 6128.76 2184C6023.93 2220 5915.52 2257.3 5701.08 2257.3C5486.65 2257.3 5378.23 2220 5273.41 2184C5173.65 2149.7 5079.43 2117.3 4886.64 2117.3C4693.86 2117.3 4599.63 2149.7 4499.88 2184C4395.05 2220 4286.64 2257.3 4072.2 2257.3C3857.77 2257.3 3749.35 2220 3644.52 2184C3544.77 2149.7 3450.55 2117.3 3257.76 2117.3C3064.98 2117.3 2970.75 2149.7 2871 2184C2766.17 2220 2657.76 2257.3 2443.32 2257.3C2228.89 2257.3 2120.47 2220 2015.64 2184C1915.89 2149.7 1821.67 2117.3 1628.88 2117.3C1436.1 2117.3 1341.87 2149.7 1242.12 2184C1137.29 2220 1028.88 2257.3 814.441 2257.3C600.004 2257.3 491.592 2220 386.763 2184C287.011 2149.7 192.784 2117.3 0.000480593 2117.3Z" fill="#84F7B2"/>
<path d="M0.000480593 2319.1V2259.1C214.437 2259.1 322.85 2296.4 427.679 2332.4C527.43 2366.7 621.657 2399.1 814.441 2399.1C1007.22 2399.1 1101.45 2366.7 1201.2 2332.4C1306.03 2296.4 1414.44 2259.1 1628.88 2259.1C1843.32 2259.1 1951.73 2296.4 2056.56 2332.4C2156.31 2366.7 2250.54 2399.1 2443.32 2399.1C2636.11 2399.1 2730.33 2366.7 2830.08 2332.4C2934.91 2296.4 3043.33 2259.1 3257.76 2259.1C3472.2 2259.1 3580.61 2296.4 3685.44 2332.4C3785.19 2366.7 3879.42 2399.1 4072.2 2399.1C4264.99 2399.1 4359.21 2366.7 4458.97 2332.4C4563.79 2296.4 4672.21 2259.1 4886.64 2259.1C5101.08 2259.1 5209.49 2296.4 5314.32 2332.4C5414.07 2366.7 5508.3 2399.1 5701.08 2399.1C5893.87 2399.1 5988.09 2366.7 6087.85 2332.4C6192.68 2296.4 6301.09 2259.1 6515.52 2259.1C6729.96 2259.1 6838.37 2296.4 6943.2 2332.4C7042.95 2366.7 7137.18 2399.1 7329.97 2399.1C7522.75 2399.1 7616.98 2366.7 7716.73 2332.4C7821.56 2296.4 7929.97 2259.1 8144.41 2259.1C8358.84 2259.1 8467.26 2296.4 8572.08 2332.4C8671.84 2366.7 8766.06 2399.1 8958.85 2399.1V2459.1C8744.41 2459.1 8636 2421.8 8531.17 2385.8C8431.42 2351.5 8337.19 2319.1 8144.41 2319.1C7951.62 2319.1 7857.4 2351.5 7757.64 2385.8C7652.81 2421.8 7544.4 2459.1 7329.97 2459.1C7115.53 2459.1 7007.12 2421.8 6902.29 2385.8C6802.53 2351.5 6708.31 2319.1 6515.52 2319.1C6322.74 2319.1 6228.51 2351.5 6128.76 2385.8C6023.93 2421.8 5915.52 2459.1 5701.08 2459.1C5486.65 2459.1 5378.23 2421.8 5273.41 2385.8C5173.65 2351.5 5079.43 2319.1 4886.64 2319.1C4693.86 2319.1 4599.63 2351.5 4499.88 2385.8C4395.05 2421.8 4286.64 2459.1 4072.2 2459.1C3857.77 2459.1 3749.35 2421.8 3644.52 2385.8C3544.77 2351.5 3450.55 2319.1 3257.76 2319.1C3064.98 2319.1 2970.75 2351.5 2871 2385.8C2766.17 2421.8 2657.76 2459.1 2443.32 2459.1C2228.89 2459.1 2120.47 2421.8 2015.64 2385.8C1915.89 2351.5 1821.67 2319.1 1628.88 2319.1C1436.1 2319.1 1341.87 2351.5 1242.12 2385.8C1137.29 2421.8 1028.88 2459.1 814.441 2459.1C600.004 2459.1 491.592 2421.8 386.763 2385.8C287.011 2351.5 192.784 2319.1 0.000480593 2319.1Z" fill="#10A04A"/>
<path d="M0.000480593 2520.9V2460.9C214.437 2460.9 322.85 2498.2 427.679 2534.2C527.43 2568.5 621.657 2600.9 814.441 2600.9C1007.22 2600.9 1101.45 2568.5 1201.2 2534.2C1306.03 2498.2 1414.44 2460.9 1628.88 2460.9C1843.32 2460.9 1951.73 2498.2 2056.56 2534.2C2156.31 2568.5 2250.54 2600.9 2443.32 2600.9C2636.11 2600.9 2730.33 2568.5 2830.08 2534.2C2934.91 2498.2 3043.33 2460.9 3257.76 2460.9C3472.2 2460.9 3580.61 2498.2 3685.44 2534.2C3785.19 2568.5 3879.42 2600.9 4072.2 2600.9C4264.99 2600.9 4359.21 2568.5 4458.97 2534.2C4563.79 2498.2 4672.21 2460.9 4886.64 2460.9C5101.08 2460.9 5209.49 2498.2 5314.32 2534.2C5414.07 2568.5 5508.3 2600.9 5701.08 2600.9C5893.87 2600.9 5988.09 2568.5 6087.85 2534.2C6192.68 2498.2 6301.09 2460.9 6515.52 2460.9C6729.96 2460.9 6838.37 2498.2 6943.2 2534.2C7042.95 2568.5 7137.18 2600.9 7329.97 2600.9C7522.75 2600.9 7616.98 2568.5 7716.73 2534.2C7821.56 2498.2 7929.97 2460.9 8144.41 2460.9C8358.84 2460.9 8467.26 2498.2 8572.08 2534.2C8671.84 2568.5 8766.06 2600.9 8958.85 2600.9V2660.9C8744.41 2660.9 8636 2623.6 8531.17 2587.6C8431.42 2553.3 8337.19 2520.9 8144.41 2520.9C7951.62 2520.9 7857.4 2553.3 7757.64 2587.6C7652.81 2623.6 7544.4 2660.9 7329.97 2660.9C7115.53 2660.9 7007.12 2623.6 6902.29 2587.6C6802.53 2553.3 6708.31 2520.9 6515.52 2520.9C6322.74 2520.9 6228.51 2553.3 6128.76 2587.6C6023.93 2623.6 5915.52 2660.9 5701.08 2660.9C5486.65 2660.9 5378.23 2623.6 5273.41 2587.6C5173.65 2553.3 5079.43 2520.9 4886.64 2520.9C4693.86 2520.9 4599.63 2553.3 4499.88 2587.6C4395.05 2623.6 4286.64 2660.9 4072.2 2660.9C3857.77 2660.9 3749.35 2623.6 3644.52 2587.6C3544.77 2553.3 3450.55 2520.9 3257.76 2520.9C3064.98 2520.9 2970.75 2553.3 2871 2587.6C2766.17 2623.6 2657.76 2660.9 2443.32 2660.9C2228.89 2660.9 2120.47 2623.6 2015.64 2587.6C1915.89 2553.3 1821.67 2520.9 1628.88 2520.9C1436.1 2520.9 1341.87 2553.3 1242.12 2587.6C1137.29 2623.6 1028.88 2660.9 814.441 2660.9C600.004 2660.9 491.592 2623.6 386.763 2587.6C287.011 2553.3 192.784 2520.9 0.000480593 2520.9Z" fill="#84F7B2"/>
<path d="M0.000480593 2722.8V2662.8C214.437 2662.8 322.85 2700.1 427.679 2736.1C527.43 2770.4 621.657 2802.8 814.441 2802.8C1007.22 2802.8 1101.45 2770.4 1201.2 2736.1C1306.03 2700.1 1414.44 2662.8 1628.88 2662.8C1843.32 2662.8 1951.73 2700.1 2056.56 2736.1C2156.31 2770.4 2250.54 2802.8 2443.32 2802.8C2636.11 2802.8 2730.33 2770.4 2830.08 2736.1C2934.91 2700.1 3043.33 2662.8 3257.76 2662.8C3472.2 2662.8 3580.61 2700.1 3685.44 2736.1C3785.19 2770.4 3879.42 2802.8 4072.2 2802.8C4264.99 2802.8 4359.21 2770.4 4458.97 2736.1C4563.79 2700.1 4672.21 2662.8 4886.64 2662.8C5101.08 2662.8 5209.49 2700.1 5314.32 2736.1C5414.07 2770.4 5508.3 2802.8 5701.08 2802.8C5893.87 2802.8 5988.09 2770.4 6087.85 2736.1C6192.68 2700.1 6301.09 2662.8 6515.52 2662.8C6729.96 2662.8 6838.37 2700.1 6943.2 2736.1C7042.95 2770.4 7137.18 2802.8 7329.97 2802.8C7522.75 2802.8 7616.98 2770.4 7716.73 2736.1C7821.56 2700.1 7929.97 2662.8 8144.41 2662.8C8358.84 2662.8 8467.26 2700.1 8572.08 2736.1C8671.84 2770.4 8766.06 2802.8 8958.85 2802.8V2862.8C8744.41 2862.8 8636 2825.5 8531.17 2789.5C8431.42 2755.2 8337.19 2722.8 8144.41 2722.8C7951.62 2722.8 7857.4 2755.2 7757.64 2789.5C7652.81 2825.5 7544.4 2862.8 7329.97 2862.8C7115.53 2862.8 7007.12 2825.5 6902.29 2789.5C6802.53 2755.2 6708.31 2722.8 6515.52 2722.8C6322.74 2722.8 6228.51 2755.2 6128.76 2789.5C6023.93 2825.5 5915.52 2862.8 5701.08 2862.8C5486.65 2862.8 5378.23 2825.5 5273.41 2789.5C5173.65 2755.2 5079.43 2722.8 4886.64 2722.8C4693.86 2722.8 4599.63 2755.2 4499.88 2789.5C4395.05 2825.5 4286.64 2862.8 4072.2 2862.8C3857.77 2862.8 3749.35 2825.5 3644.52 2789.5C3544.77 2755.2 3450.55 2722.8 3257.76 2722.8C3064.98 2722.8 2970.75 2755.2 2871 2789.5C2766.17 2825.5 2657.76 2862.8 2443.32 2862.8C2228.89 2862.8 2120.47 2825.5 2015.64 2789.5C1915.89 2755.2 1821.67 2722.8 1628.88 2722.8C1436.1 2722.8 1341.87 2755.2 1242.12 2789.5C1137.29 2825.5 1028.88 2862.8 814.441 2862.8C600.004 2862.8 491.592 2825.5 386.763 2789.5C287.011 2755.2 192.784 2722.8 0.000480593 2722.8Z" fill="#10A04A"/>
<path d="M0.000480593 2924.6V2864.6C214.437 2864.6 322.85 2901.9 427.679 2937.9C527.43 2972.2 621.657 3004.6 814.441 3004.6C1007.22 3004.6 1101.45 2972.2 1201.2 2937.9C1306.03 2901.9 1414.44 2864.6 1628.88 2864.6C1843.32 2864.6 1951.73 2901.9 2056.56 2937.9C2156.31 2972.2 2250.54 3004.6 2443.32 3004.6C2636.11 3004.6 2730.33 2972.2 2830.08 2937.9C2934.91 2901.9 3043.33 2864.6 3257.76 2864.6C3472.2 2864.6 3580.61 2901.9 3685.44 2937.9C3785.19 2972.2 3879.42 3004.6 4072.2 3004.6C4264.99 3004.6 4359.21 2972.2 4458.97 2937.9C4563.79 2901.9 4672.21 2864.6 4886.64 2864.6C5101.08 2864.6 5209.49 2901.9 5314.32 2937.9C5414.07 2972.2 5508.3 3004.6 5701.08 3004.6C5893.87 3004.6 5988.09 2972.2 6087.85 2937.9C6192.68 2901.9 6301.09 2864.6 6515.52 2864.6C6729.96 2864.6 6838.37 2901.9 6943.2 2937.9C7042.95 2972.2 7137.18 3004.6 7329.97 3004.6C7522.75 3004.6 7616.98 2972.2 7716.73 2937.9C7821.56 2901.9 7929.97 2864.6 8144.41 2864.6C8358.84 2864.6 8467.26 2901.9 8572.08 2937.9C8671.84 2972.2 8766.06 3004.6 8958.85 3004.6V3064.6C8744.41 3064.6 8636 3027.3 8531.17 2991.3C8431.42 2957 8337.19 2924.6 8144.41 2924.6C7951.62 2924.6 7857.4 2957 7757.64 2991.3C7652.81 3027.3 7544.4 3064.6 7329.97 3064.6C7115.53 3064.6 7007.12 3027.3 6902.29 2991.3C6802.53 2957 6708.31 2924.6 6515.52 2924.6C6322.74 2924.6 6228.51 2957 6128.76 2991.3C6023.93 3027.3 5915.52 3064.6 5701.08 3064.6C5486.65 3064.6 5378.23 3027.3 5273.41 2991.3C5173.65 2957 5079.43 2924.6 4886.64 2924.6C4693.86 2924.6 4599.63 2957 4499.88 2991.3C4395.05 3027.3 4286.64 3064.6 4072.2 3064.6C3857.77 3064.6 3749.35 3027.3 3644.52 2991.3C3544.77 2957 3450.55 2924.6 3257.76 2924.6C3064.98 2924.6 2970.75 2957 2871 2991.3C2766.17 3027.3 2657.76 3064.6 2443.32 3064.6C2228.89 3064.6 2120.47 3027.3 2015.64 2991.3C1915.89 2957 1821.67 2924.6 1628.88 2924.6C1436.1 2924.6 1341.87 2957 1242.12 2991.3C1137.29 3027.3 1028.88 3064.6 814.441 3064.6C600.004 3064.6 491.592 3027.3 386.763 2991.3C287.011 2957 192.784 2924.6 0.000480593 2924.6Z" fill="#84F7B2"/>
<path d="M0.000480593 3126.4V3066.4C214.437 3066.4 322.85 3103.7 427.679 3139.7C527.43 3174 621.657 3206.4 814.441 3206.4C1007.22 3206.4 1101.45 3174 1201.2 3139.7C1306.03 3103.7 1414.44 3066.4 1628.88 3066.4C1843.32 3066.4 1951.73 3103.7 2056.56 3139.7C2156.31 3174 2250.54 3206.4 2443.32 3206.4C2636.11 3206.4 2730.33 3174 2830.08 3139.7C2934.91 3103.7 3043.33 3066.4 3257.76 3066.4C3472.2 3066.4 3580.61 3103.7 3685.44 3139.7C3785.19 3174 3879.42 3206.4 4072.2 3206.4C4264.99 3206.4 4359.21 3174 4458.97 3139.7C4563.79 3103.7 4672.21 3066.4 4886.64 3066.4C5101.08 3066.4 5209.49 3103.7 5314.32 3139.7C5414.07 3174 5508.3 3206.4 5701.08 3206.4C5893.87 3206.4 5988.09 3174 6087.85 3139.7C6192.68 3103.7 6301.09 3066.4 6515.52 3066.4C6729.96 3066.4 6838.37 3103.7 6943.2 3139.7C7042.95 3174 7137.18 3206.4 7329.97 3206.4C7522.75 3206.4 7616.98 3174 7716.73 3139.7C7821.56 3103.7 7929.97 3066.4 8144.41 3066.4C8358.84 3066.4 8467.26 3103.7 8572.08 3139.7C8671.84 3174 8766.06 3206.4 8958.85 3206.4V3266.4C8744.41 3266.4 8636 3229.1 8531.17 3193.1C8431.42 3158.8 8337.19 3126.4 8144.41 3126.4C7951.62 3126.4 7857.4 3158.8 7757.64 3193.1C7652.81 3229.1 7544.4 3266.4 7329.97 3266.4C7115.53 3266.4 7007.12 3229.1 6902.29 3193.1C6802.53 3158.8 6708.31 3126.4 6515.52 3126.4C6322.74 3126.4 6228.51 3158.8 6128.76 3193.1C6023.93 3229.1 5915.52 3266.4 5701.08 3266.4C5486.65 3266.4 5378.23 3229.1 5273.41 3193.1C5173.65 3158.8 5079.43 3126.4 4886.64 3126.4C4693.86 3126.4 4599.63 3158.8 4499.88 3193.1C4395.05 3229.1 4286.64 3266.4 4072.2 3266.4C3857.77 3266.4 3749.35 3229.1 3644.52 3193.1C3544.77 3158.8 3450.55 3126.4 3257.76 3126.4C3064.98 3126.4 2970.75 3158.8 2871 3193.1C2766.17 3229.1 2657.76 3266.4 2443.32 3266.4C2228.89 3266.4 2120.47 3229.1 2015.64 3193.1C1915.89 3158.8 1821.67 3126.4 1628.88 3126.4C1436.1 3126.4 1341.87 3158.8 1242.12 3193.1C1137.29 3229.1 1028.88 3266.4 814.441 3266.4C600.004 3266.4 491.592 3229.1 386.763 3193.1C287.011 3158.8 192.784 3126.4 0.000480593 3126.4Z" fill="#10A04A"/>
<path d="M0.000480593 3328.3V3268.3C214.437 3268.3 322.85 3305.6 427.679 3341.6C527.43 3375.9 621.657 3408.3 814.441 3408.3C1007.22 3408.3 1101.45 3375.9 1201.2 3341.6C1306.03 3305.6 1414.44 3268.3 1628.88 3268.3C1843.32 3268.3 1951.73 3305.6 2056.56 3341.6C2156.31 3375.9 2250.54 3408.3 2443.32 3408.3C2636.11 3408.3 2730.33 3375.9 2830.08 3341.6C2934.91 3305.6 3043.33 3268.3 3257.76 3268.3C3472.2 3268.3 3580.61 3305.6 3685.44 3341.6C3785.19 3375.9 3879.42 3408.3 4072.2 3408.3C4264.99 3408.3 4359.21 3375.9 4458.97 3341.6C4563.79 3305.6 4672.21 3268.3 4886.64 3268.3C5101.08 3268.3 5209.49 3305.6 5314.32 3341.6C5414.07 3375.9 5508.3 3408.3 5701.08 3408.3C5893.87 3408.3 5988.09 3375.9 6087.85 3341.6C6192.68 3305.6 6301.09 3268.3 6515.52 3268.3C6729.96 3268.3 6838.37 3305.6 6943.2 3341.6C7042.95 3375.9 7137.18 3408.3 7329.97 3408.3C7522.75 3408.3 7616.98 3375.9 7716.73 3341.6C7821.56 3305.6 7929.97 3268.3 8144.41 3268.3C8358.84 3268.3 8467.26 3305.6 8572.08 3341.6C8671.84 3375.9 8766.06 3408.3 8958.85 3408.3V3468.3C8744.41 3468.3 8636 3431 8531.17 3395C8431.42 3360.7 8337.19 3328.3 8144.41 3328.3C7951.62 3328.3 7857.4 3360.7 7757.64 3395C7652.81 3431 7544.4 3468.3 7329.97 3468.3C7115.53 3468.3 7007.12 3431 6902.29 3395C6802.53 3360.7 6708.31 3328.3 6515.52 3328.3C6322.74 3328.3 6228.51 3360.7 6128.76 3395C6023.93 3431 5915.52 3468.3 5701.08 3468.3C5486.65 3468.3 5378.23 3431 5273.41 3395C5173.65 3360.7 5079.43 3328.3 4886.64 3328.3C4693.86 3328.3 4599.63 3360.7 4499.88 3395C4395.05 3431 4286.64 3468.3 4072.2 3468.3C3857.77 3468.3 3749.35 3431 3644.52 3395C3544.77 3360.7 3450.55 3328.3 3257.76 3328.3C3064.98 3328.3 2970.75 3360.7 2871 3395C2766.17 3431 2657.76 3468.3 2443.32 3468.3C2228.89 3468.3 2120.47 3431 2015.64 3395C1915.89 3360.7 1821.67 3328.3 1628.88 3328.3C1436.1 3328.3 1341.87 3360.7 1242.12 3395C1137.29 3431 1028.88 3468.3 814.441 3468.3C600.004 3468.3 491.592 3431 386.763 3395C287.011 3360.6 192.784 3328.3 0.000480593 3328.3Z" fill="#84F7B2"/>
</svg>
